<?xml version="1.0" encoding="UTF-8" standalone="no"?>
<!DOCTYPE svg PUBLIC "-//W3C//DTD SVG 1.1//EN" "http://www.w3.org/Graphics/SVG/1.1/DTD/svg11.dtd">
<svg xmlns="http://www.w3.org/2000/svg" version="1.1" viewBox="0.00 0.00 24.00 24.00">
<path fill="#ffffff" d="
  M 3.66 13.72
  Q 4.93 10.85 2.76 9.46
  Q 2.20 9.11 2.52 8.52
  L 4.24 5.47
  Q 4.51 4.98 5.04 5.19
  L 5.99 5.56
  A 1.35 1.33 52.2 0 0 6.65 5.65
  Q 9.32 5.31 9.61 2.77
  Q 9.69 2.00 10.46 2.00
  L 13.82 2.00
  Q 14.38 2.00 14.45 2.56
  L 14.56 3.41
  Q 14.63 3.93 14.97 4.34
  Q 16.67 6.34 18.92 5.23
  Q 19.45 4.96 19.75 5.48
  L 21.49 8.52
  Q 21.77 9.01 21.34 9.38
  L 20.71 9.94
  Q 20.30 10.29 20.13 10.80
  Q 19.28 13.37 21.26 14.58
  Q 21.81 14.91 21.49 15.46
  L 19.75 18.54
  Q 19.47 19.04 18.94 18.82
  L 18.10 18.47
  Q 17.61 18.26 17.09 18.38
  Q 14.60 18.96 14.49 21.51
  Q 14.47 21.99 13.99 22.00
  L 10.45 22.00
  Q 9.77 22.00 9.62 21.34
  Q 8.72 17.38 4.98 18.78
  Q 4.48 18.96 4.22 18.50
  L 2.52 15.46
  Q 2.24 14.98 2.67 14.61
  L 3.59 13.82
  A 0.22 0.21 -10.7 0 0 3.66 13.72
  Z
  M 16.00 12.00
  A 4.00 4.00 0.0 0 0 12.00 8.00
  A 4.00 4.00 0.0 0 0 8.00 12.00
  A 4.00 4.00 0.0 0 0 12.00 16.00
  A 4.00 4.00 0.0 0 0 16.00 12.00
  Z"
/>
</svg>
